<?xml version="1.0" encoding="UTF-8"?><svg id="Layer_2" xmlns="http://www.w3.org/2000/svg" xmlns:xlink="http://www.w3.org/1999/xlink" viewBox="0 0 244.89 60.92"><defs><linearGradient id="linear-gradient" x1="159.3" y1="100.9" x2="75.79" y2="-43.76" gradientTransform="matrix(1, 0, 0, 1, 0, 0)" gradientUnits="userSpaceOnUse"><stop offset="0" stop-color="#bd7a60"/><stop offset=".18" stop-color="#fccaab"/><stop offset=".2" stop-color="#f4c0a2"/><stop offset=".25" stop-color="#dca388"/><stop offset=".31" stop-color="#cb8d76"/><stop offset=".36" stop-color="#c1816a"/><stop offset=".41" stop-color="#be7d67"/><stop offset=".58" stop-color="#c6866e"/><stop offset=".62" stop-color="#c98971"/><stop offset=".73" stop-color="#a96e5f"/><stop offset=".84" stop-color="#8d574f"/></linearGradient></defs><g id="Layer_1-2"><path d="M7.82,0V58.26H0V0H7.82ZM24.58,0h15.96c7.25,0,13.26,1.44,18.01,4.31,4.75,2.88,8.22,6.58,10.4,11.12,2.18,4.54,3.26,9.34,3.26,14.38,0,5.64-1.32,10.62-3.95,14.95-2.63,4.33-6.15,7.66-10.56,9.99-4.41,2.34-9.19,3.51-14.34,3.51H24.58V0Zm17.25,50.69c4.3,0,8.14-.85,11.52-2.54s6.03-4.15,7.94-7.37c1.91-3.22,2.86-7.06,2.86-11.52s-.99-8.49-2.98-11.76c-1.99-3.28-4.63-5.76-7.94-7.45s-6.86-2.54-10.68-2.54h-10.15V50.69h9.43Zm82.6,10.15l-13.14-34.41-13.46,34.49L75.26,1.21h4.51l18.45,50.45,11.12-30.14L101.62,1.21h3.95l19.02,49.96L143.2,1.21h4.19l-22.97,59.63ZM195.74,1.05v3.79h-31.35V27.56h28.2v3.79h-28.2v23.13h32.48v3.79h-36.42V1.05h35.3Zm45.97,33.28c2.12,2.42,3.18,5.32,3.18,8.7s-.83,6.07-2.5,8.38c-1.67,2.31-3.87,4.03-6.61,5.16s-5.72,1.69-8.95,1.69h-14.91V1.05h12.65c11.6,0,17.41,4.83,17.41,14.5,0,3.17-.74,5.95-2.22,8.34-1.48,2.39-3.61,4.15-6.41,5.28,3.44,1.02,6.22,2.74,8.34,5.16Zm-25.83-6.53h10.56c3.87,0,6.75-1.05,8.66-3.14,1.91-2.1,2.86-4.89,2.86-8.38,0-3.92-1.16-6.81-3.46-8.66-2.31-1.85-5.56-2.78-9.75-2.78h-8.86V27.8Zm20.95,23.85c2.69-1.99,4.03-4.81,4.03-8.46,0-3.87-1.44-6.77-4.31-8.7-2.88-1.93-6.25-2.9-10.11-2.9h-10.56v23.05h10.8c4.08,0,7.47-.99,10.15-2.98Z" fill="url(#linear-gradient)"/></g></svg>